<svg xmlns="http://www.w3.org/2000/svg" width="65" height="57.001" viewBox="0 0 65 57.001">
  <g id="PC1" transform="translate(-1217.283 839)">
    <g id="Union_3" data-name="Union 3" transform="translate(1068 607)" fill="none">
      <path d="M170.283-1389a2,2,0,0,1-2-2,2,2,0,0,1,2-2h8v-10h-24a5,5,0,0,1-5-5v-33a5,5,0,0,1,5-5h55a5,5,0,0,1,5,5v33a5,5,0,0,1-5,5h-24v10h9a2,2,0,0,1,2,2,2,2,0,0,1-2,2Z" stroke="none"/>
      <path d="M 209.2824096679688 -1407.000122070313 C 209.8340301513672 -1407.000122070313 210.2828063964844 -1407.448486328125 210.2828063964844 -1407.999633789063 L 210.2828063964844 -1440.999877929688 C 210.2828063964844 -1441.551513671875 209.8340301513672 -1442.000366210938 209.2824096679688 -1442.000366210938 L 154.2825012207031 -1442.000366210938 C 153.7313842773438 -1442.000366210938 153.2830047607422 -1441.551513671875 153.2830047607422 -1440.999877929688 L 153.2830047607422 -1407.999633789063 C 153.2830047607422 -1407.448486328125 153.7313842773438 -1407.000122070313 154.2825012207031 -1407.000122070313 L 178.2828063964844 -1407.000122070313 L 182.2828063964844 -1407.000122070313 L 185.2830047607422 -1407.000122070313 L 209.2824096679688 -1407.000122070313 M 194.2830047607422 -1388.999755859375 L 170.2826995849609 -1388.999755859375 C 169.1784057617188 -1388.999755859375 168.2828979492188 -1389.895263671875 168.2828979492188 -1391.00048828125 C 168.2828979492188 -1392.104736328125 169.1784057617188 -1393.000244140625 170.2826995849609 -1393.000244140625 L 178.2828063964844 -1393.000244140625 L 178.2828063964844 -1403.000122070313 L 154.2825012207031 -1403.000122070313 C 151.5213012695313 -1403.000122070313 149.2830047607422 -1405.238403320313 149.2830047607422 -1407.999633789063 L 149.2830047607422 -1440.999877929688 C 149.2830047607422 -1443.761108398438 151.5213012695313 -1446.000366210938 154.2825012207031 -1446.000366210938 L 209.2824096679688 -1446.000366210938 C 212.0445098876953 -1446.000366210938 214.2828063964844 -1443.761108398438 214.2828063964844 -1440.999877929688 L 214.2828063964844 -1407.999633789063 C 214.2828063964844 -1405.238403320313 212.0445098876953 -1403.000122070313 209.2824096679688 -1403.000122070313 L 185.2830047607422 -1403.000122070313 L 185.2830047607422 -1393.000244140625 L 194.2830047607422 -1393.000244140625 C 195.3872985839844 -1393.000244140625 196.2828063964844 -1392.104736328125 196.2828063964844 -1391.00048828125 C 196.2828063964844 -1389.895263671875 195.3872985839844 -1388.999755859375 194.2830047607422 -1388.999755859375 Z" stroke="none" fill="#fff"/>
    </g>
  </g>
</svg>
